<?xml version="1.0" encoding="utf-8"?>
<!-- Generator: Adobe Illustrator 25.4.1, SVG Export Plug-In . SVG Version: 6.00 Build 0)  -->
<svg version="1.1" id="Layer_1" xmlns="http://www.w3.org/2000/svg" xmlns:xlink="http://www.w3.org/1999/xlink" x="0px" y="0px"
	 viewBox="0 0 2886.1 1941" style="enable-background:new 0 0 2886.1 1941;" xml:space="preserve">
<style type="text/css">
	.st0{fill:#2792D1;}
	.st1{fill:#F6EB14;}
</style>
<g>
	<g>
		<path class="st0" d="M2279.1,304.3c-18.3,8.5-43.7,43.8-68.9,95.8c-48.1,99.3-87,224.8-117.1,377.9c-5.9,30.3-6.4,38.7-2.7,46.8
			c3.2,7.2,5.3,9.4,16.9,17.1c12.6,8.6,18.3,11,22.8,10c8.5-1.9,12.2-7.5,16.9-25.6c6.6-25.4,17.1-48.6,32.9-72.9
			c4.8-7.3,8.9-14.9,9.4-17c1-5-2.3-10.2-7.5-12.3c-6-2.3-11.5-0.2-18.8,6.9c-4,3.9-5.9,5.1-5.9,3.8c0-3.3,8.7-46.4,13.7-68.5
			c22.4-97.4,54.3-183.3,93.4-251.6c17.8-30.8,29.5-46.3,40.5-53.4c7.2-4.5,12.2-4.4,24.8,0.8c11,4.6,17.4,5.1,23.2,2.2
			c6.5-3.5,8.7-12,5-19.1c-2.9-5.2-39.4-34.3-49.8-39.4c-7.4-3.8-9.5-4.4-15.8-4.4C2286.7,301.6,2283.4,302.2,2279.1,304.3z"/>
		<path class="st0" d="M999.7,387c-15.2,4.1-49.1,17.5-73.6,29.2c-15.6,7.4-21.9,12.3-23.2,18.2l-0.8,3.3L899,435
			c-6.2-5.1-15.4-5.9-23.3-1.9c-4.9,2.4-19.4,13.7-30.4,23.5c-24.1,21.6-33.7,40.7-33.8,67.6c-0.1,29,10.2,57.8,45,126.3
			c28.3,55.5,38.7,79,44.3,100.4c2.4,9.3,2.7,12.1,2.2,21.6c-1.1,20.6-7.4,33-18.8,36.9c-6.5,2.3-20.8,2.3-31.7,0
			c-44.2-9-104-50.1-130.4-89.6c-10.8-16.2-12.9-21.5-12.6-32.1c0.2-7.7-0.1-9.4-2.3-12.6c-7.9-11.9-23-8.7-41.4,8.6
			c-18.5,17.4-19.6,25.8-6.2,51.3c18.9,36,39.9,58.7,81,87.8c37.4,26.5,70.2,40.5,102.8,44c14.5,1.5,23.8,0.2,35-5
			c6.6-3.2,10-5.8,18-13.9c5.4-5.4,13.5-12.5,18-15.6c31.3-21.6,49-51.1,50.9-84.2c0.5-9.7,0.2-12.7-1.7-20
			c-4.7-17.1-19.1-48.6-39.3-86.1c-57.3-106.1-63.8-141.4-32.3-175.7c7.9-8.6,11.7-14.5,11.7-18.3c0-1.6,0.4-1.5,3,0.9
			c3.8,3.7,10.9,5.6,17.3,4.6c2.8-0.4,13.2-3.6,23.1-7c21.7-7.5,39.9-12.2,45.5-11.8l4.1,0.3l0.3,5.4c0.4,7.4-3.9,23.8-10.1,38.6
			c-6.8,15.9-9.5,19.5-18.1,23.8c-11.9,5.8-15.1,15.6-8.1,24.7c3.6,4.9,22.9,16.2,32.1,19.2c7.7,2.4,12,2.2,18.5-1.2
			c14.7-7.5,37.9-49.8,49.6-90.6c7.8-26.9,3.7-36.7-18.4-44.3c-8.4-2.9-10.3-4-12.1-7c-3.5-5.9-11.8-14-16.3-16.1
			C1008.9,385.1,1007.1,385.1,999.7,387z"/>
		<path class="st0" d="M2522.3,562.4c-1.7,0.9-4.1,2.7-5.2,4l-2,2.4l-7.8-2.6c-10.7-3.5-17.3-3.4-25,0.4c-17.8,8.6-36.8,34.6-61,83
			l-9.3,18.5h-5.3c-10.3-0.2-15.6,4.4-15.6,13.5c0,3.7,0.8,5.2,4.8,9.6l4.7,5.1l-4.1,13.6c-9.5,30.7-17.4,68.4-17.6,83.9
			c-0.2,8.1,0.1,10,2.8,15.4c3.4,7.1,12.2,15.8,19.9,19.9c2.9,1.6,8.8,5.6,13,8.8c9.3,7.3,20.3,13.1,28.2,14.7
			c23.7,4.9,56.7-20.4,110.6-85.1c15.9-18.9,17.9-22.3,17.2-29.5c-1-9.4-8.7-14.4-18.2-11.8c-3.7,1-7.7,4-18.8,14.5
			c-45.5,42.7-78.8,66.6-96.1,68.9l-4.8,0.7l-0.7-6.3c-1.5-13.3,2.2-40.2,9.4-68.5c5.2-20.8,7.1-25.9,9.1-25.2
			c6.2,2.4,27.6,5.4,38,5.3c14.8,0,24-2.1,37.1-8.5c20.9-10.1,32.7-26.4,36.2-50.1c1.7-11.3,2.1-86.5,0.4-89.4
			c-2.4-4.5-8.4-6.2-23.1-6.6C2528.2,560.7,2524.9,561,2522.3,562.4z M2513.2,629c0.5,25-0.2,31.8-4.1,38.6
			c-2.9,4.9-9.6,9.4-16.8,11.3c-7.7,2.1-29.4,2.3-29.4,0.2c0-2.9,15.8-33.4,22.7-43.8c6.4-9.7,24.3-29.9,26.4-29.9
			C2512.4,605.4,2513,616.1,2513.2,629z"/>
		<path class="st0" d="M1363.8,565.5c-6.5,2.4-11.4,6.1-23.2,17.6c-18.6,18.3-39.4,43.9-57.1,70.4c-3.9,5.9-7.4,10.6-7.7,10.7
			c-0.3,0,0.4-5.8,1.9-12.9c4.5-23.3,8.2-49.4,7.4-52.9c-1.1-5.3-5-11.4-8.6-13.6c-1.7-1.1-6.4-3.2-10.3-4.6
			c-3.9-1.4-9.6-4.6-12.7-7.1c-7.2-5.9-12.1-7.5-17.1-5.9c-5.9,2-8.6,4.6-20.8,20.5c-6.2,8.3-15.9,20.1-21.6,26.6
			c-11,12.4-13.4,16.9-12.4,24.1c1.2,9,8.5,13.9,17,11.7c3.5-0.9,7.2-3.8,16-12.2c6.2-6,11.8-10.7,12.1-10.2
			c2.3,2.3-6.2,50.6-15.5,87.7c-13.2,53.4-24.3,85.7-33.3,97.8c-2.6,3.5-3.5,5.8-3.6,9.5c-0.1,6.3,2,8.6,16.8,18.3
			c17.6,11.5,25.9,13,32.9,5.4c3.8-4,5.6-7.7,12.3-25.7c13-34.8,29.9-69,53.7-108.5c11.9-19.7,32.5-49.9,43.5-63.7
			c10-12.7,33.1-36.5,35.3-36.5c1,0,1.2,4.1,0.7,17.6c-2.3,55.1-15.6,114.1-39.4,174.4c-3.9,9.7-7.1,18.7-7.1,20.1
			c0,8.2,11.7,17.8,29.4,24.3c17.1,6.2,20.9,3.9,28-17c19.4-56.6,62.6-129.5,111.2-187.4c14.4-17.2,31.4-33.1,35.4-33.1
			c1.3,0,0.9,11.5-0.9,26.1c-5.8,46.5-26.1,115.3-54.3,183.5c-7.1,17.1-6.5,22.2,3.4,28.8c6.8,4.6,24.3,10.1,32.1,10.3
			c5.7,0.1,6.6-0.2,9.5-3.2c1.9-1.9,9.6-14.8,17.3-28.9c18.3-33.5,33.2-59.2,44.5-77.1c5.1-7.9,9.7-16.2,10.3-18.4
			c3-11.2-7.4-20.7-18-16.2c-2.9,1.2-4,1.3-4,0.3c0-0.8,1.7-8.2,3.8-16.6c7.3-28.9,11.8-60.2,11.9-83.4c0.1-14.3,0-14.9-3.2-21.1
			c-3.8-7.5-9.6-12.4-18.7-15.8c-3.4-1.3-8.5-4-11.3-6.1c-12-8.8-24-10.9-33.7-5.9c-6.3,3.2-29.3,25.7-46.5,45.7
			c-11.3,13.1-29.7,36.8-48.1,62.1l-3.6,4.9l0.8-7.1c0.4-3.9,1.2-11,1.7-15.8c0.5-4.8,1.3-19.1,1.6-31.6
			c1.2-36.3-0.3-39.1-27.2-52.3C1376.3,564.4,1370.7,563,1363.8,565.5z"/>
		<path class="st0" d="M1834.2,669c-5.8,1.5-7,2.4-23.1,14.9c-15.8,12.3-23.4,19.7-23.4,22.7c0,1.3,1.2,3.6,2.7,5
			c2.1,2.2,3.7,2.7,7.8,2.7c6,0,10.2-1.9,23.2-9.7c6.5-3.9,9.4-5.1,9.6-4c0.5,2.3-3.9,18.6-8.2,30.1c-13.8,37.2-34.1,76.4-49.3,95.6
			c-8.4,10.5-8.6,14.2-0.5,16c1.9,0.4,7,2.5,11.7,4.5c11.3,5.1,18.6,6.4,24.8,4.7c4.6-1.2,4.7-1.4,2.2-2.2c-2.5-0.8-2.5-0.9,0.7-0.7
			c4.5,0.2,8.3-1.9,10.7-5.8c5.1-8.7,16.4-22.2,35.3-42.3c20.4-21.6,23.5-25.8,21.2-29.5c-2.6-4.1-11.5-5.6-18.1-2.8
			c-1.6,0.7-1.5-0.1,1-5.6c9.5-20.8,18.5-42.6,21.9-52.6c8.1-23.8,4.6-31.7-15.6-35.6c-4.8-0.9-11.1-2.5-14-3.6
			C1846.9,667.9,1840.3,667.2,1834.2,669z"/>
	</g>
	<path d="M2364,707.3c0,0.7,0.8,1.3,1.7,1.3c0.9,0,1.7-0.6,1.7-1.3s-0.8-1.3-1.7-1.3C2364.8,706,2364,706.6,2364,707.3z"/>
	<g>
		<path class="st0" d="M2124.3,916.9c-1.1,14.3-2.4,32.3-3.3,46.6c-0.5,8-1.1,17-1.4,19.8l-0.4,5.3l6.9,0.6c3.8,0.3,7.3,0.3,7.7,0
			c0.7-0.3,0.9-9.1,0.9-26.6c0-16.9,0.3-26.2,0.9-26.6c0.8-0.4,7,4.4,12.5,9.5c0.5,0.4,2.6,2.2,4.6,3.9c2,1.5,4.5,3.6,5.4,4.5
			c1,0.9,3.8,3.2,6.2,5.1c2.3,2,4.8,4.2,5.6,4.9c0.8,0.7,3.2,2.7,5.4,4.5c2.1,1.8,4.5,3.7,5.1,4.3c4.5,4.2,22.2,18.6,22.9,18.6
			c0.5,0,1-4.5,1.2-11.4c1.2-34,2.4-57.2,3.2-60.5c1.3-5.4,0.4-6.1-7.8-6.1h-6.8v26.2c0,16.4-0.3,26.2-0.9,26.2
			c-0.7,0-9.5-7.1-14.2-11.6c-0.5-0.4-3.2-2.8-6-5.1c-2.7-2.4-6.8-5.8-9-7.7c-2.1-1.9-5.8-5.1-8.1-6.9c-2.3-2-9.6-8.2-16.2-14
			c-6.6-5.7-12.4-10.4-12.9-10.4C2125.1,909.9,2124.5,912.7,2124.3,916.9z"/>
		<path class="st0" d="M1098.9,919.6c-3.2,4.8-7.9,12.2-10.6,16.5c-2.7,4.2-6.1,9.3-7.4,11.4c-1.4,2.1-2.5,4-2.5,4.5
			c0,0.4-0.3,0.8-0.7,0.8c-0.4,0-1.2,1-1.8,2.2c-0.8,1.8-8.4,13.8-16,25.3c-1.1,1.6-2.1,3.6-2.1,4.3c0,1.5,10.6,7.2,12,6.3
			c0.6-0.3,1.5-1.6,2.1-2.9c0.5-1.2,2.4-4.8,4.2-8c1.8-3.1,4.1-7.4,5.2-9.4c1.4-2.6,2.5-3.6,3.6-3.5c0.9,0.2,2.4-0.2,3.4-0.7
			c1.1-0.6,8.1-0.8,19-0.6c11.1,0.2,17.4-0.1,17.6-0.6c0.7-2,6.2,5.3,16.5,21.9c1.3,2.1,2.5,4,2.7,4.2c0.5,0.6,12.3-5.5,12.8-6.6
			c0.3-0.7-0.7-2.6-2-4.3c-2.6-3.3-5.1-6.9-13.1-18.6c-2.7-3.8-7.6-11.1-11.1-16.1s-6.9-10.2-7.6-11.3c-1.1-1.8-3-4.5-10.5-15.3
			c-1-1.5-2.1-2.8-2.3-3.1c-0.3-0.3-1.1-1.5-2-2.8c-0.9-1.3-2-2.3-2.6-2.3C1105.1,910.8,1102,914.8,1098.9,919.6z M1109.9,937.8
			c0.8,1.4,3.4,5.6,6,9.3c2.5,3.7,4.5,7.1,4.5,7.5c0,0.4-1.5,0.9-3.2,0.9c-1.8,0.1-8.4,0.3-14.7,0.5l-11.4,0.3l0.6-2.4
			c0.3-1.3,1-3,1.6-3.7s3.2-4.8,5.7-9c6.1-10.5,6-10.4,7.9-8C1107.7,934.3,1109.1,936.3,1109.9,937.8z"/>
		<path class="st0" d="M2016,916.2c-1.9,2.9-3.6,5.5-3.9,5.7c-0.3,0.3-1.8,2.6-3.3,5.1c-1.5,2.6-5.5,8.7-8.7,13.7s-6.2,9.6-6.5,10.3
			c-0.3,0.7-0.8,1.5-1,1.7c-0.5,0.4-2.6,3.5-11.9,18.4c-2.1,3.3-4.7,7.4-5.8,9.1c-1.1,1.6-2.1,3.6-2.1,4.3c0,0.7,2.5,2.6,5.7,4.2
			l5.7,2.9l1.6-2.1c0.9-1.1,1.6-2.3,1.6-2.7c0-0.3,1.3-2.8,2.9-5.6c1.6-2.7,4.1-7.1,5.5-9.7c1.8-3.4,3-4.6,4.1-4.5
			c0.9,0.2,2.4-0.2,3.4-0.7c1.1-0.6,8.1-0.8,19-0.6c11.1,0.2,17.4-0.1,17.6-0.6c0.2-0.5,0.9-0.3,1.7,0.3c1.4,1.1,2.9,3.4,13.3,19.4
			c2.1,3.3,4,6.2,4.1,6.3c0.4,0.5,11.5-5.3,12.5-6.5c0.6-0.8,0.2-2-1.6-4.3c-2.5-3.1-3.6-4.6-12.4-17.4
			c-4.4-6.3-15.2-22.2-21.6-31.7c-2.4-3.5-4.5-6.6-4.8-6.9c-0.3-0.3-1.6-2.1-3-4.3s-2.7-4-3-4.3c-0.3-0.3-1.1-1.5-2-2.8
			c-0.9-1.3-2-2.3-2.6-2.3C2020,910.8,2017.9,913.2,2016,916.2z M2028.1,943.1c3.9,6,6.9,11.2,6.6,11.7c-0.3,0.4-1.8,0.6-3.3,0.3
			c-1.6-0.3-3.1-0.1-3.3,0.3c-0.3,0.4-5.4,0.8-11.3,0.8H2006l0.6-2.4c0.3-1.3,1-2.9,1.6-3.6s3.2-4.8,5.7-9c5.1-8.7,6.1-10.1,6.7-9.4
			C2020.8,932,2024.3,937.1,2028.1,943.1z"/>
		<path class="st0" d="M2426.7,918.2c-5.1,7.9-7.2,11.1-15.3,23.8c-2.7,4.2-6.2,9.6-7.7,12c-1.5,2.3-4.9,7.5-7.4,11.6
			c-2.5,4-4.8,7.5-5.1,7.7c-0.9,0.7-6.9,11.1-6.9,11.9c0,0.5,10.9,6.1,12,6.1c0.3,0,1.5-1.8,2.6-4.1c1.2-2.2,2.3-4.2,2.6-4.5
			c0.5-0.5,2.4-4.1,6.2-11.4c2.1-4.2,2.9-5,4.4-4.5c1,0.3,2.3,0.1,2.8-0.4c0.7-0.6,7.5-0.8,19-0.6c9.9,0.2,17.8,0,17.6-0.4
			c-0.2-0.3,0.3-0.6,1-0.6c1.3,0,17.6,23.8,17.6,25.7c0,1,3.2,1.2,3.6,0.2c0.2-0.3,2.5-1.7,5.2-3c5.3-2.7,5.7-3.5,3.3-6.7
			c-0.9-1.1-3-4.1-4.7-6.6c-1.8-2.4-4.6-6.5-6.3-9c-1.7-2.4-5.5-8-8.4-12.2c-10.2-15.1-17.1-25-22.6-32.5c-3-4.3-5.7-8.2-5.9-8.8
			C2433.4,909.4,2431.2,911.1,2426.7,918.2z M2444,949.1c3.8,5.7,3.8,6.6-0.1,6c-1.6-0.3-3.2-0.1-3.4,0.3c-0.7,1-22.7,1-22.7,0
			c0-1.2,12.9-22.7,14-23.4c0.5-0.3,2.7,2.1,5.1,6C2439.3,941.6,2442.5,946.6,2444,949.1z"/>
		<path class="st0" d="M853.7,913.1c-1.6,0.3-3.3,0.7-3.9,1.1c-0.4,0.3-2.7,0.9-5.1,1.3c-2.3,0.3-4.8,0.9-5.6,1.3
			c-0.8,0.4-3.9,1.5-6.9,2.6c-11.1,3.9-23.6,11.9-29.4,19.1c-5.1,6.2-6.9,10.6-7.3,17.9c-0.3,6-0.2,7.1,2.1,11.5
			c1.3,2.7,4.2,6.4,6.4,8.4c4,3.6,15.5,9.9,18.1,9.9c0.7,0,3,0.6,5.1,1.4c2.7,0.9,8.7,1.5,21.6,1.9c9.8,0.3,17.7,0.3,17.7-0.1
			c0-0.3,0.6-0.6,1.4-0.6c1.1,0,1.3-0.5,0.9-2.4c-0.3-1.3-0.8-3.6-1-5.1l-0.6-2.8l-11,0.6c-6.4,0.3-11.1,0.2-11.1-0.3
			c0-0.4-3.1-0.9-6.9-0.9c-3.8-0.1-7.4-0.5-8-1c-0.5-0.4-2.3-1.1-3.8-1.5c-1.5-0.3-2.8-0.9-2.8-1.3c0-0.3-0.9-0.9-2-1.2
			c-6.8-1.7-13.9-15.1-11-20.9c0.3-0.8,1.4-2.9,2.3-4.8c1.8-3.8,10.9-12.3,13.8-13c1.1-0.3,2-0.9,2-1.2c0-0.3,1-0.9,2.3-1.3
			c1.3-0.3,2.6-0.9,2.8-1.1c1.2-1.5,15-5.4,24.9-6.9c3.6-0.6,3.9-0.8,3.7-3.2c-0.1-1.5-0.4-3.9-0.8-5.4
			C861.2,912.3,861,912.2,853.7,913.1z"/>
		<path class="st0" d="M1399.5,913.1c-2.3,0.2-4.6,0.7-5.1,1.1c-0.9,0.9-1,8.8-0.1,10.2c0.3,0.7,2.5,0.9,5.5,0.9
			c2.7-0.1,5.3,0.1,5.8,0.3c0.5,0.3,1.1,0.2,1.3-0.4c0.3-0.7,3.6-1,11.1-1l10.6-0.1l0.1,32.2l0.1,32.2l7.7,0.3c6.1,0.2,8,0,8.8-1.1
			c0.6-0.7,0.7-1.3,0.2-1.3s-1-6-1.4-15.7c-0.3-8.6-0.8-22-1-30c-0.4-11.2-0.3-14.7,0.6-15.7c0.9-1.2,2.6-1.4,10.5-0.9
			c5.7,0.3,9.6,0.9,10,1.5c0.3,0.6,1,0.7,1.7,0.3c0.6-0.4,2.9-0.6,5.1-0.5c5.9,0.3,7.6-1.1,7.6-6c0-2.2-0.5-4.4-1-4.9
			c-1.5-1.2-10-1.7-10.4-0.6c-0.5,1.4-61.7,1.1-62.2-0.3c-0.2-0.5-0.6-0.9-0.9-0.9C1404.1,912.7,1401.9,912.9,1399.5,913.1z"/>
		<path class="st0" d="M1515.1,917.2l-2.7,4.7l3.3,2.1c1.9,1.2,3.8,2.1,4.1,2.1c1,0,8.2,5.5,12.9,9.9c4.3,3.9,9.3,11.2,11.7,16.7
			c1.5,3.5,2.1,14.9,2.1,35.4c0,0.3,3.3,0.5,7.5,0.4l7.5-0.3v-15.4v-15.4l3.3-6.7c5.8-11.9,19-23.1,32.5-27.5
			c1.6-0.5,1.9-2.4,0.6-4.6c-0.4-0.8-1.2-2.5-1.7-3.9c-0.4-1.3-1.5-2.3-2.1-2.3c-2.1,0-14.1,5.5-17.1,7.9
			c-10.3,7.9-18.7,16.8-19.8,21c-0.5,2-3.8,2.8-3.8,1.1c0-2.6-10.9-15.3-17.1-20.2c-5.3-4-15.6-9.9-17.4-9.9
			C1518.4,912.5,1516.6,914.6,1515.1,917.2z"/>
		<path class="st0" d="M1785.4,935c0,15.3-0.3,23-0.9,23.8c-0.5,0.7-1.2,2.5-1.5,4c-0.8,4-5.2,10.1-9.3,12.6
			c-1.8,1.2-6.2,2.7-9.5,3.4c-5.6,1.2-6.8,1.2-12.3,0c-11.6-2.7-17.7-10.2-19.6-24.3c-0.9-6.6-1.1-26.5-0.4-35.8l0.3-3.4l-7.5-0.3
			l-7.5-0.3l0.3,20c0.3,21.7,1.4,29.7,4.6,36.2c3.2,6.3,9.1,12.1,15.6,15.3c5.7,2.7,5.7,2.8,19,2.8c11.9,0,13.8-0.2,18.4-2
			c2.8-1.1,7.2-3.6,9.7-5.5c4.5-3.4,11.3-12.7,11.3-15.3c0-0.8,0.3-1.6,0.6-2c1.8-1.8,2.7-12.1,2.7-32.5l0.1-19.5h-7h-7.1V935z"/>
		<path class="st0" d="M1910.6,912.9c-0.4,0.1-3.2,0.9-6,1.7c-12.8,3.7-33,12.4-33,14.3c0,0.3-0.5,0.7-1.2,0.7
			c-2.1,0-13.2,11.1-16.4,16.4c-3.4,5.6-4.5,11.4-3.5,18.2c0.8,4.9,5.6,12.3,9.8,15.2c1.7,1.2,3.3,2.4,3.6,2.7
			c0.8,0.9,6.2,3.3,12,5.1c4.4,1.5,8.7,2,20.2,2.3c9.3,0.3,14.8,0.9,15.2,1.5c0.4,0.6,0.7,0.3,0.7-0.6c0-1.2,0.8-1.5,3.9-1.5
			c2.1,0,5.6-0.4,7.7-1l3.9-1V971v-15.7h-6.9h-6.9v11.6v11.6l-2.2,0.9c-3,1.2-6.9,1-8.9-0.2c-1.3-0.9-1.9-0.9-2.7,0
			c-1.4,1.4-5.4,1.3-12.4-0.3c-11.1-2.6-18-7.2-20.9-14c-1.7-3.9-2.1-9.2-0.9-10c0.4-0.3,1-1.5,1.4-2.9c0.7-3.1,6-9.3,11.4-13.2
			c4.9-3.6,17.1-10,19-10c0.8,0,1.7-0.3,2.2-0.8c0.7-0.7,9.1-2.9,15.2-4.1c2.7-0.5,3.9-2.2,2.5-3.9c-0.4-0.5-1-2.5-1.4-4.3
			C1915.2,912.6,1913.9,911.9,1910.6,912.9z"/>
		<path class="st0" d="M2288.5,913.3l-15.6,0.4l-0.1,37.3l-0.1,37.3l7.3,0.4c4,0.3,7.1,0.2,6.9-0.1c-0.2-0.3,4.5-1.2,10.2-2.1
			c5.7-0.9,10.9-1.8,11.3-2.1c0.5-0.3,2.4-0.9,4.3-1.3c1.9-0.3,3.9-0.9,4.3-1.3c0.5-0.3,2.2-1.1,3.9-1.6c5.3-1.7,15.7-8.3,20.2-12.9
			c6.5-6.4,10-14.1,10.5-22.9c0.3-6.1,0.1-7.4-1.8-11.1c-1.9-3.7-5.2-7.3-9.6-10.5c-2.2-1.6-8.9-4.3-11.9-4.9
			c-1.8-0.3-3.9-0.9-4.7-1.4c-0.8-0.4-5.1-1.1-9.9-1.5c-4.6-0.4-8.7-1-9-1.5C2304.4,913.2,2297.1,913.1,2288.5,913.3z M2314.7,925.6
			c11.3,2.4,18.9,7.3,20.8,13.3c1.5,4.6,0.5,12.9-2.1,17c-4.7,7.5-15.3,15.4-22.9,17.1c-1.6,0.3-3.4,0.9-3.9,1.4
			c-1.3,1-10.4,2.7-15.4,2.8l-4.3,0.1l-0.3-26.7l-0.2-26.7l10.5,0.1C2303.5,924,2310.3,924.6,2314.7,925.6z"/>
		<path class="st0" d="M923.4,914.4c-1.1,1.4-1.5,12.5-0.5,14.8c1.2,2.7,0.9,53-0.2,53.3c-1.1,0.3-0.6,3.4,0.8,5.1
			c1.2,1.6,13.2,1.5,14.8-0.2c0.8-0.7,0.9-1.3,0.3-1.3c-0.6,0-0.9-4.6-0.7-15.3l0.3-15.2l8.8-0.3c5.9-0.2,8.7,0.1,8.7,0.7
			c0,0.5,0.6,0.3,1.4-0.3c1.1-1.1,3.9-1.4,17.6-1.4H991l-0.2,16.9l-0.2,17h7.6h7.6l0.5-4.7c0.3-2.6,0.3-5.1-0.2-5.6
			c-0.9-1.2-1-38.2-0.2-40.8c0.4-1.1,0.5-6.9,0.3-12.8l-0.4-10.7h-7.3h-7.3l-0.3,15.3l-0.2,15.3l-5.1-0.5c-2.8-0.3-5.1-0.2-5.1,0.3
			c0,1-32,1.6-33.2,0.7c-0.8-0.6-1.1-0.6-1.1,0c0,1.2-4.6,2.1-6.9,1.5c-1.7-0.6-1.8-0.9-1.5-16.5l0.3-16l-6.9-0.3
			C926.4,913.3,924.1,913.6,923.4,914.4z"/>
		<path class="st0" d="M1209.3,913.8c-0.3,0.3-0.6,2.5-0.6,4.7s-0.4,4.4-0.9,4.7c-0.7,0.3-0.6,0.8,0.2,1.3c0.9,0.6,1.2,6.7,1.4,31.8
			c0.2,17.1,0.3,31.4,0.3,31.7c0,1.3,13.2,0.7,15-0.7c1.5-1.1,1.5-1.4,0.4-2.1c-1.1-0.7-1.3-5.1-1.3-31V924l6.3-0.3
			c3.5-0.2,6.8,0.1,7.3,0.6c0.6,0.4,2.5,1,4.3,1.4c4.1,0.8,8.3,4.7,8.3,7.7c0,5.6-5.5,12.1-13.5,15.9c-4,2-5.1,3.3-3.9,5.4
			c1.3,2.2,32.5,35.8,33.8,36.4c0.4,0.2,1.3-0.2,2-0.9c0.7-0.6,2.8-2.2,4.7-3.6c2-1.5,3.5-3.2,3.5-3.9s-2.8-3.9-6.2-7
			c-3.4-3.2-9.9-9.3-14.3-13.5l-8.1-7.9l3-1.8c9.9-6.3,14.5-12.9,14.5-20.8c0-3.5-0.4-4.9-2.6-7.5c-2.2-2.7-4.2-3.9-12.4-7.6
			C1245.7,914.6,1211,912.2,1209.3,913.8z"/>
		<path class="st0" d="M1330.1,914.4c-0.7,2.1-0.9,13.5-0.2,13.5c0.3,0,0.6,12.3,0.6,27.4c0,15.1-0.3,27.4-0.8,27.4
			s-0.4,1.3-0.2,2.7l0.6,2.8l7.5,0.3c4.1,0.1,7.5-0.1,7.5-0.4c0-7.3,0.1-73.1,0-73.8c0-0.7-2.1-1-7.3-1
			C1332.6,913.3,1330.3,913.7,1330.1,914.4z"/>
	</g>
	<g transform="translate(0.000000,723.000000) scale(0.100000,-0.100000)">
		<path class="st1" d="M3681.7,932.5c-3.4-5.7-54.3-44.1-112-84.8c-99.5-70.1-291.8-249.9-486.3-453.5
			c-47.5-49.8-148.2-152.7-225.1-227.3C2653.7-35.6,2608.5-120.4,2607.3-307c-1.1-167.4,38.5-223.9,182.1-259
			c41.8-10.2,115.4-30.5,161.7-44.1c140.2-40.7,225.1-24.9,272.6,52c49.8,80.3-7.9,165.1-173,251.1c-41.8,22.6-76.9,47.5-76.9,54.3
			c0,24.9,192.3,451.2,225.1,498.7c17,26,65.6,99.5,108.6,165.1c92.7,142.5,176.4,254.5,294,390.2
			c92.7,108.6,115.4,141.4,97.3,141.4C3693,942.7,3685.1,938.2,3681.7,932.5z"/>
		<path class="st1" d="M3411.4-150.9c-22.6-36.2-58.8-97.3-79.2-136.8l-36.2-71.2l45.2-39.6c49.8-41.8,67.9-46.4,81.4-22.6
			c6.8,13.6,47.5-7.9,190-101.8c6975.6-4589.4,12987.7-6760.8,17750.1-6411.3c739.6,55.4,1543.7,186.6,2308.2,378.9
			c452.4,114.2,850.5,303.1,1176.2,556.4c213.7,166.2,487.4,406,629.9,551.9c278.2,282.7,538.3,657.1,736.2,1057.4
			c175.3,352.9,277.1,607.3,317.8,790.5c59.9,271.4,113.1,668.4,135.7,1007.7c12.4,199,15.8,844.8,4.5,954.5
			c-10.2,88.2-27.1,89.3-27.1,1.1c0-105.2-31.7-381.1-62.2-548.5c-221.7-1202.2-1077.8-2251.7-2396.5-2940.4
			c-763.4-399.2-1723.6-665-2766.3-767.9c-848.2-83.7-1840-72.4-2833,33.9C15359.8-5516.1,11309.9-4211,6768.1-2054.3
			c-986.2,468.2-2123.9,1048.4-3042.2,1549.4L3443.1-350l1.1,89.3c1.1,48.6,6.8,108.6,13.6,132.3c6.8,22.6,7.9,41.8,3.4,41.8
			S3435.2-115.9,3411.4-150.9z"/>
		<path class="st1" d="M26378.5-386.2c-130.1-46.4-141.4-202.4-18.1-256.7c28.3-12.4,66.7-29.4,83.7-38.5
			c18.1-9,37.3-15.8,44.1-15.8c46.4,0,318.9-158.3,407.1-235.2l40.7-36.2l-23.8-45.2c-19.2-35.1-31.7-45.2-55.4-45.2
			c-18.1,0-31.7-3.4-31.7-6.8c0-18.1,83.7-141.4,105.2-157.2c72.4-50.9,242,35.1,303.1,153.8c28.3,56.5,28.3,144.8,0,200.2
			c-71.2,139.1-337,333.6-601.7,441.1C26500.7-373.7,26439.6-364.7,26378.5-386.2z"/>
	</g>
	<g transform="translate(0.000000,257.000000) scale(0.100000,-0.100000)">
		<path class="st1" d="M18575.5-818.7c-91-141-70-668,31-780c20-23,28-23,52,1c55,55,80,306,53,521c-19,143-24,170-33,176
			c-5,3-9,14-9,24c0,23-47,80-66,80C18596.5-796.7,18583.5-806.7,18575.5-818.7z"/>
		<path class="st1" d="M19957.5-1256.7c-105-57-270-195-342-288c-82-107-97-128-122-176c-53-100-22-161,63-124
			c89,39,267,177,338,261c105,126,126,154,155,208c22,43,30,69,28,97c-3,36-4,37-43,39
			C20009.5-1237.7,19980.5-1244.7,19957.5-1256.7z"/>
		<path class="st1" d="M17197.5-1307.7c-93-54,234-448,472-569c62-32,110-23,110,21c0,33-66,143-140,232c-71,85-97,111-191,191
			c-55,46-141,101-187,119C17212.5-1293.7,17219.5-1294.7,17197.5-1307.7z"/>
		<path class="st1" d="M18975.5-1836.7c-51-52-64-60-96-60c-22,0-48,8-63,20c-26,20-47,26-47,12c0-11-75-32-115-32
			c-22,0-50-10-71-24c-42-29-69-24-90,15c-14,27-44,40-44,19c0-5-14-17-30-25c-29-15-32-15-64,10c-40,31-49,31-89,3
			c-57-39-67-54-67-102c0-25-4-48-10-51c-5-3-10-19-10-36c0-16,5-29,10-29c12,0,13-52,1-66c-5-5-11-25-15-44c-5-28-2-39,14-53
			c11-9,28-17,38-17c40,0,72-24,72-54c0-23-19-48-103-130c-57-55-115-107-130-115s-30-25-33-38c-4-13-21-30-39-39
			c-34-16-45-37-45-91c0-17-5-35-10-38s-10-16-10-29s-9-31-20-41c-14-13-20-31-20-60c0-23-7-91-16-151c-18-122-20-212-5-227
			c7-7,17-5,30,7c17,16,20,16,35,1c9-9,16-21,16-26s7-9,15-9s15,5,15,10c0,6,5,10,11,10c11,0,89,80,89,91c0,17,145,24,530,24h425
			l3,75c1,41,7,85,14,97c7,14,9,47,5,90c-6,64-5,70,18,95c14,15,25,37,25,50c0,14,15,36,40,58c22,19,40,41,40,48c0,6,5,12,10,12
			c6,0,10,9,10,21c0,26,23,49,48,49c21,0,32,18,32,54c0,13,9,31,20,41c10,9,27,37,36,61c15,40,15,46,1,62c-10,11-17,42-20,85
			c-3,41-10,74-19,85c-9,9-19,27-22,39c-4,12-18,31-32,42c-13,10-24,28-24,39c0,12-10,28-21,36c-20,13-21,21-16,74c5,50,3,62-12,76
			c-9,9-24,16-32,16c-17,0-52,53-59,90C19070.5-1762.7,19039.5-1771.7,18975.5-1836.7z"/>
		<path class="st1" d="M17088.5-2550.7c-3-3-48-10-100-16c-124-12-155-19-203-44c-82-43-47-94,89-128c105-27,431-27,540-1
			c55,13,116,44,129,66c12,19,1,45-25,58c-60,29-94,38-204,49C17152.5-2548.7,17094.5-2544.7,17088.5-2550.7z"/>
		<path class="st1" d="M19704.5-2627.7c-93-9-123-18-167-46c-62-38-48-72,47-114c65-29,113-38,269-51c132-10,298-1,380,20
			c57,15,91,44,91,77c0,28-29,49-115,84C20128.5-2625.7,19871.5-2609.7,19704.5-2627.7z"/>
	</g>
</g>
</svg>
